<?xml version="1.0" encoding="UTF-8" standalone="no" ?>
<!DOCTYPE svg PUBLIC "-//W3C//DTD SVG 1.1//EN" "http://www.w3.org/Graphics/SVG/1.1/DTD/svg11.dtd">
<svg xmlns="http://www.w3.org/2000/svg" xmlns:xlink="http://www.w3.org/1999/xlink" version="1.1" viewBox="0 0 600 480" xml:space="preserve">

<defs>
</defs>
<g transform="matrix(2.87 0 0 2.87 274.11 224.52)"  >
<linearGradient id="SVGID_39" gradientUnits="userSpaceOnUse" gradientTransform="matrix(1 0 0 1 0 0)"  x1="0" y1="63.51" x2="102.93" y2="63.51">
<stop offset="0%" style="stop-color:rgb(234,234,234);stop-opacity: 1"/>
<stop offset="100%" style="stop-color:rgb(155,155,156);stop-opacity: 1"/>
</linearGradient>
<path style="stroke: none; stroke-width: 1; stroke-dasharray: none; stroke-linecap: butt; stroke-dashoffset: 0; stroke-linejoin: miter; stroke-miterlimit: 4; fill: url(#SVGID_39); fill-rule: nonzero; opacity: 1;"  transform=" translate(-51.48, -63.49)" d="M 39.57 127 C 31.87 122.58 9.41 109.65 7.91 108.78 C 5.77 107.55 3.66 106.25 1.4800000000000004 105.11 C 0.501974969324477 104.6587552690509 -0.07503411024725448 103.62982299429012 0.050000000000000266 102.56 Q 0.05000000000000049 89.71000000000001 0.05000000000000049 76.86 C 0.05000000000000049 76.13 0.05000000000000049 72.37 0.05000000000000049 71.67 Q 0 53.86 0 36 C -0.09101069161527765 35.060307869903 0.41692158281541136 34.164427322875646 1.27 33.76 Q 30.27 17.08 59.27 0.35999999999999943 C 59.96647817764803 -0.13911812818669345 60.903521822351976 -0.1391181281866934 61.6 0.3599999999999992 Q 67.85 4 74.15 7.58 C 75.06944485198797 8.016856308607405 75.6112827967539 8.98815099478041 75.5 10 C 75.5 15.8 75.5 21.59 75.5 27.39 C 75.39382937805672 28.408841076954932 75.94331171145893 29.383470325252297 76.87 29.82 C 85.15 34.56 93.4 39.370000000000005 101.67 44.120000000000005 C 102.49803964479908 44.48405090061584 103.00966633343809 45.3274355201692 102.95 46.230000000000004 C 102.89 49.89 102.95 53.56 102.95 57.230000000000004 C 102.95 57.650000000000006 102.89 58.06 102.82000000000001 58.86000000000001 L 75.62 43.25 C 75.55000000000001 43.91 75.48 44.25 75.48 44.7 C 75.48 50.410000000000004 75.48 56.120000000000005 75.48 61.83 C 75.48 63.1 75.95 63.41 77.13000000000001 63.4 C 85.13000000000001 63.4 93.07000000000001 63.4 101.04 63.4 C 102.89 63.4 102.91000000000001 63.4 102.91000000000001 65.25 C 102.91000000000001 74.25 102.91000000000001 83.31 102.97000000000001 92.35 C 103.06432299264883 93.41460012431264 102.46873969727392 94.4206529881216 101.49000000000001 94.85 C 96.73 97.50999999999999 92.01 100.25 87.29 102.97 Q 76.11000000000001 109.41 64.95 115.87 C 64.59 116.08 64.2 116.24000000000001 63.6 116.54 C 63.53 115.82000000000001 63.440000000000005 115.26 63.440000000000005 114.71000000000001 Q 63.440000000000005 93.62 63.440000000000005 72.52000000000001 Q 63.440000000000005 49.260000000000005 63.38 25.99000000000001 C 63.38 22.99000000000001 63.38 19.99000000000001 63.38 16.92000000000001 C 63.357948055282904 15.946812335362267 62.82668042037672 15.056625209679204 61.98061895572907 14.575210090569769 C 61.134557491081424 14.093794971460337 60.09789240234143 14.0918169880469 59.25 14.570000000000011 Q 36.45 27.76 13.67 40.92 C 12.850537054914474 41.3005376650675 12.352608532416635 42.14900786740382 12.42 43.050000000000004 Q 12.42 69.45 12.36 95.84 C 12.282884115215763 96.75636702859174 12.791747594625063 97.6218356234926 13.63 98 C 21.72 102.64 29.78 107.35 37.88 112 C 39.11108175766571 112.51188560580688 39.856622931686786 113.7748242066076 39.71 115.1 C 39.58 118.46 39.71 121.83 39.71 125.19 C 39.67 125.61 39.62 126.11 39.57 127 Z M 75.57 95.49 C 76.08999999999999 95.25999999999999 76.39999999999999 95.17 76.67999999999999 95.00999999999999 C 81 92.51 85.42 90 89.83 87.46 C 90.47274697317626 87.10652812581243 90.83670770863684 86.39838712964456 90.75 85.66999999999999 C 90.75 82.76999999999998 90.75 79.87999999999998 90.75 76.98999999999998 C 90.75 75.81999999999998 90.37 75.41999999999999 89.19 75.42999999999998 C 85.19 75.48999999999998 81.19 75.42999999999998 77.19 75.42999999999998 C 75.47 75.42999999999998 75.46 75.42999999999998 75.46 77.11999999999998 C 75.46 82.73999999999998 75.46 88.35999999999997 75.46 93.96999999999997 C 75.46 94.42 75.5 94.84 75.54 95.51 Z" stroke-linecap="round" />
</g>
<g transform="matrix(2.87 0 0 2.87 325.47 258.58)"  >
<linearGradient id="SVGID_40" gradientUnits="userSpaceOnUse" gradientTransform="matrix(1 0 0 1 0 0)"  x1="34.79" y1="47.47" x2="94.11" y2="90.43">
<stop offset="0%" style="stop-color:rgb(165,136,77);stop-opacity: 1"/>
<stop offset="100%" style="stop-color:rgb(185,157,89);stop-opacity: 1"/>
</linearGradient>
<path style="stroke: none; stroke-width: 1; stroke-dasharray: none; stroke-linecap: butt; stroke-dashoffset: 0; stroke-linejoin: miter; stroke-miterlimit: 4; fill: url(#SVGID_40); fill-rule: nonzero; opacity: 1;"  transform=" translate(-69.41, -75.37)" d="M 57.21 22.53 C 57.322953824398276 23.07432881213083 57.399788124668994 23.625531401029484 57.44 24.179999999999993 Q 57.44 38.24 57.44 52.3 Q 57.379999999999995 86.56 57.29 120.81 L 57.29 121.71000000000001 C 57.29 123.78 60.79 125.03 61.49 124.62 L 71.67 118.73 Q 89.33 108.5 107 98.31 C 108.15781263232469 97.78051564403685 108.85532670599626 96.5779051721893 108.74 95.31 Q 108.74 69.56 108.89999999999999 43.79 C 108.89999999999999 42.13 108.46 41.07 106.89999999999999 40.379999999999995 C 104.89999999999999 39.379999999999995 102.89999999999999 38.26 101.16 37.22 C 98.92999999999999 35.92 97.00999999999999 34.78 94.78999999999999 33.47 Q 88.78999999999999 29.96 82.78999999999999 26.599999999999998 C 81.84387733195021 26.18201556419131 81.26603928059438 25.210926616773882 81.35 24.18 C 81.41999999999999 20.73 81.35 17.28 81.35 13.83 C 81.35 13.37 81.35 12.83 81.35 12.14 C 81.8690651280391 12.345411105350598 82.37649157575044 12.579094337849241 82.86999999999999 12.839999999999996 Q 94.53999999999999 19.6 106.19999999999999 26.369999999999997 C 106.69999999999999 26.659999999999997 111.07999999999998 29.119999999999997 112.19999999999999 29.849999999999998 C 114.54999999999998 31.31 116.97999999999999 32.65 119.40999999999998 33.98 C 120.18138717309901 34.33983494743175 120.65926714128439 35.12971919236626 120.61999999999998 35.98 C 120.61999999999998 47.059999999999995 120.61999999999998 75.44999999999999 120.61999999999998 76.03 Q 120.61999999999998 89.38 120.69999999999997 102.75 C 120.76368378756878 103.73733872449483 120.20474496035463 104.65958778939817 119.29999999999997 105.06 Q 96.1 118.41 72.84 131.81 C 69.15 133.94 65.44 136.03 61.77 138.2 C 60.99634177318249 138.7449914675917 59.963658226817515 138.7449914675917 59.190000000000005 138.2 Q 52.980000000000004 134.51 46.71000000000001 130.92999999999998 C 46.000313865702864 130.5293433466747 45.604713642081954 129.73814289943286 45.71000000000001 128.92999999999998 C 45.71000000000001 123.21999999999998 45.620000000000005 117.50999999999998 45.71000000000001 111.80999999999997 C 45.86608831355199 110.49246356540365 45.155348059808055 109.22443833997411 43.95000000000001 108.66999999999997 C 35.790000000000006 104.06999999999998 27.69000000000001 99.34999999999997 19.55000000000001 94.66999999999997 C 18.649268879146817 94.26352652723735 18.100978279931496 93.33503441761724 18.18000000000001 92.34999999999998 Q 18.18000000000001 69.34999999999998 18.12000000000001 46.34999999999998 C 18.042757289014645 45.41035764582304 18.556946059570603 44.52148868586972 19.410000000000007 44.11999999999998 Q 37.44 33.79 55.47 23.37 C 56 23.09 56.51 22.87 57.21 22.53 Z M 45.42 43.26 C 44.88 43.5 44.52 43.62 44.21 43.8 C 39.86 46.309999999999995 35.49 48.8 31.21 51.37 C 30.644020629385185 51.767608007819355 30.279014163691606 52.39176906415537 30.21 53.08 C 30.150000000000002 63.98 30.16 74.88 30.14 85.78 C 30.086475980053788 86.55754299193178 30.520812273680306 87.28674979682769 31.23 87.61 C 35.230000000000004 89.87 39.11 92.17 43.05 94.45 C 43.4 94.65 43.769999999999996 94.79 44.129999999999995 94.96000000000001 C 44.09353171635569 94.51761590894645 43.90646000347763 94.10111662367078 43.599999999999994 93.78 C 41.32 91.18 39 88.62 36.8 86 C 36.24620429905494 85.32492374467192 35.92061570159136 84.49169701137805 35.87 83.62 C 35.779999999999994 78.77000000000001 35.809999999999995 73.91 35.809999999999995 69.06 C 35.809999999999995 68.64 35.92999999999999 68.22 36.05 67.41 L 45.419999999999995 77.77 Z" stroke-linecap="round" />
</g>
<g transform="matrix(1 0 0 1 300.5 326.41)" style=""  >
		<text xml:space="preserve" font-family="WenCang-Regular" font-size="14" font-style="normal" font-weight="normal" style="stroke: none; stroke-width: 1; stroke-dasharray: none; stroke-linecap: butt; stroke-dashoffset: 0; stroke-linejoin: miter; stroke-miterlimit: 4; fill: rgb(50,50,50); fill-rule: nonzero; opacity: 1; white-space: pre;" ></text>
</g>
</svg>